<?xml version="1.0" encoding="UTF-8"?>
<svg width="16px" height="15px" viewBox="0 0 16 15" version="1.1" xmlns="http://www.w3.org/2000/svg" xmlns:xlink="http://www.w3.org/1999/xlink">
    <!-- Generator: Sketch 43.2 (39069) - http://www.bohemiancoding.com/sketch -->
    <title>icon-search</title>
    <desc>Created with Sketch.</desc>
    <defs></defs>
    <g id="Page-1" stroke="none" stroke-width="1" fill="none" fill-rule="evenodd">
        <g id="icon-search" fill-rule="nonzero" fill="#000000">
            <path d="M7,13.16 C10.27,13.16 12.923,10.458 12.923,7.128 C12.923,3.798 10.27,1.098 7,1.098 C3.73,1.098 1.077,3.798 1.077,7.128 C1.077,10.458 3.73,13.158 7,13.158 L7,13.16 Z M7,14.255 C3.134,14.255 0,11.065 0,7.128 C0,3.191 3.134,0 7,0 C10.866,0 14,3.19 14,7.128 C14,11.064 10.866,14.255 7,14.255 L7,14.255 Z" id="Shape"></path>
            <rect id="Rectangle-path" transform="translate(13.364766, 12.960643) rotate(-50.000000) translate(-13.364766, -12.960643) " x="12.729766" y="10.2106428" width="1.27" height="5.5" rx="0.635"></rect>
        </g>
    </g>
</svg>