<?xml version="1.0" encoding="UTF-8"?>
<svg width="26px" height="19px" viewBox="0 0 26 19" version="1.1" xmlns="http://www.w3.org/2000/svg" xmlns:xlink="http://www.w3.org/1999/xlink">
    <!-- Generator: Sketch 43.2 (39069) - http://www.bohemiancoding.com/sketch -->
    <title>cart</title>
    <desc>Created with Sketch.</desc>
    <defs></defs>
    <g id="Page-1" stroke="none" stroke-width="1" fill="none" fill-rule="evenodd">
        <g id="cart" transform="translate(0.000000, 1.000000)" fill-rule="nonzero">
            <path d="M0,0 L2.52151293,0 C3.2866318,0 4.06648116,0.613181818 4.25624451,1.36454545 L4.34462743,1.71863636 C4.53525728,2.47 4.84286453,3.69636364 5.03262787,4.446 L7.04637222,12.4467273 C7.23700206,13.1963636 8.01685142,13.8095455 8.78110379,13.8095455 L19.7362543,13.8095455 C20.5013732,13.8095455 21.358341,13.2205455 21.6399532,12.5011364 L24.7879452,4.4745 C25.0695574,3.75509091 24.6839652,3.10304545 23.9188464,3.10304545 L4.85586201,3.10304545" id="Shape" stroke="#000000"></path>
            <rect id="Rectangle-path" fill="#000000" x="10.4" y="6.90909091" width="13.8666667" height="1" rx="0.5"></rect>
            <path d="M11,17 C11,17.5523732 10.551495,18 10,18 C9.44767442,18 9,17.5523732 9,17 C9,16.4484452 9.44684385,16 9.99916944,16 C10.551495,16 10.9991694,16.4484452 10.9991694,17 M19.6526667,17 C19.6526667,17.5523732 19.2041617,18 18.6526667,18 C18.1003411,18 17.6526667,17.5523732 17.6526667,17 C17.6526667,16.4484452 18.0995105,16 18.6518361,16 C19.2033311,16 19.6518361,16.4484452 19.6518361,17" id="Shape" fill="#000000"></path>
        </g>
    </g>
</svg>